<svg xmlns="http://www.w3.org/2000/svg" viewBox="0 0 559.82 559.82"><defs><style>.cls-1{fill:none;}.cls-2{fill:#ff9015;}</style></defs><title>Method_2018_Logo_Icon_Only</title><g id="Layer_2" data-name="Layer 2"><g id="Layer_1-2" data-name="Layer 1"><rect class="cls-1" width="559.82" height="559.82"/><path class="cls-2" d="M452.16,107.66a243.6,243.6,0,0,0-344.5,344.5,243.6,243.6,0,0,0,344.5-344.5ZM279.91,81.85a197.09,197.09,0,0,1,125.88,45.26L244.54,189.87,83.76,252.46C97.16,156.2,180,81.85,279.91,81.85ZM83.77,307.47l131.6-51.23-73,166.05A197.75,197.75,0,0,1,83.77,307.47ZM279.91,478a196.9,196.9,0,0,1-95.27-24.46l98.28-223.57,14.25-5.54L213.26,415.27l46.92,20.63L364.72,198.1l14.18-5.52-90.6,206.1,46.92,20.63,109.51-249.1A196.89,196.89,0,0,1,478,279.91C478,389.12,389.12,478,279.91,478Z"/></g></g></svg>