<svg xmlns="http://www.w3.org/2000/svg" viewBox="0 0 1304.25 369.81"><defs><style>.cls-1{fill:none;}.cls-2{fill:#ff9015;}</style></defs><title>Method_2018_Logo_Horizontal_Inverted</title><g id="Layer_2" data-name="Layer 2"><g id="Layer_1-2" data-name="Layer 1"><rect id="margin" class="cls-1" width="1304.25" height="369.81"/><path class="cls-2" d="M300.42,75.19A155.16,155.16,0,1,0,81,294.62,155.16,155.16,0,1,0,300.42,75.19ZM190.71,58.75a125.59,125.59,0,0,1,80.18,28.83l-102.71,40L65.77,167.42C74.31,106.11,127.08,58.75,190.71,58.75ZM65.78,202.46l83.82-32.63L103.11,275.59A125.94,125.94,0,0,1,65.78,202.46Zm124.93,108.6A125.34,125.34,0,0,1,130,295.48l62.6-142.4,9.07-3.53L148.26,271.13l29.89,13.14L244.73,132.8l9-3.52L196.05,260.56l29.89,13.14L295.7,115a126.1,126.1,0,0,1-105,196Z"/><path d="M404.19,117.91H444.8l32.46,98.55,32.65-98.55h41.22V260.07H524.65V159.32h-.4L489.4,260.07H465.31l-34.84-99.75h-.4v99.75H404.19Z"/><path d="M608.07,233.59h80.24v26.28H577.81V117.31H681.54v26.28H608.07v32.06H673v27.67H608.07Z"/><path d="M746.45,144.19l-45.2.2V118.11H822.5v26.28l-44.79-.2V260.07H746.45Z"/><path d="M868.1,199.14v60.53H837.64V117.11H868.1v51.57H934V117.51h30.67V259.67H934V199.14Z"/><path d="M1124.94,188.39a70.43,70.43,0,0,1-5.87,28.67,75.8,75.8,0,0,1-15.83,23.3,74,74,0,0,1-23.39,15.73,73.89,73.89,0,0,1-57.25,0,73.85,73.85,0,0,1-39-39,71.37,71.37,0,0,1-5.77-28.67,72.09,72.09,0,0,1,5.77-28.77,73.58,73.58,0,0,1,39-39.13,73.89,73.89,0,0,1,57.25,0,74.37,74.37,0,0,1,23.39,15.73,75.54,75.54,0,0,1,15.83,23.4A71.14,71.14,0,0,1,1124.94,188.39Zm-73.66-43.6a41.1,41.1,0,0,0-16.83,3.48,44.24,44.24,0,0,0-13.74,9.46,46.3,46.3,0,0,0-9.35,13.83,42.3,42.3,0,0,0,0,33.65,44.56,44.56,0,0,0,23.09,23.1,41.1,41.1,0,0,0,16.83,3.48,40.42,40.42,0,0,0,16.72-3.48,45.27,45.27,0,0,0,13.64-9.36,43.62,43.62,0,0,0,9.26-13.74,43.57,43.57,0,0,0,0-33.65,45,45,0,0,0-9.26-13.83,44.5,44.5,0,0,0-13.64-9.46A40.42,40.42,0,0,0,1051.28,144.79Z"/><path d="M1142.86,117.91h61.33a73.18,73.18,0,0,1,25.58,4.38,55.49,55.49,0,0,1,20.51,13.14,60.69,60.69,0,0,1,13.54,21.9q4.88,13.14,4.88,30.86a98.65,98.65,0,0,1-4,28.67,63.12,63.12,0,0,1-12,22.7,56.5,56.5,0,0,1-20.11,15q-12,5.47-28.37,5.48h-61.33Zm31.26,115.88H1202a40.17,40.17,0,0,0,13.14-2.19,29,29,0,0,0,11.35-7.27,36.68,36.68,0,0,0,8-13.24q3-8.16,3-19.91a83.18,83.18,0,0,0-2.09-19.42,39,39,0,0,0-6.87-14.83,30.55,30.55,0,0,0-12.64-9.46q-7.87-3.28-19.42-3.28h-22.3Z"/></g></g></svg>