<svg xmlns="http://www.w3.org/2000/svg" viewBox="0 0 559.82 559.82"><defs><style>.cls-1{fill:none;}.cls-2{fill:#ff9015;}</style></defs><title>Method_2018_Logo_Vertical_Inverted</title><g id="Layer_2" data-name="Layer 2"><g id="Layer_1-2" data-name="Layer 1"><rect class="cls-1" width="559.82" height="559.82"/><path class="cls-2" d="M404.34,89.31A176,176,0,1,0,155.48,338.17,176,176,0,0,0,404.34,89.31ZM279.91,70.66a142.4,142.4,0,0,1,90.94,32.69L254.36,148.7,138.21,193.91C147.89,124.37,207.74,70.66,279.91,70.66Zm-141.69,163,95.06-37-52.73,120A142.79,142.79,0,0,1,138.22,233.65ZM279.91,356.82a142.16,142.16,0,0,1-68.82-17.67l71-161.51,10.29-4L231.76,311.53l33.9,14.9,75.52-171.79,10.24-4L286,299.54l33.9,14.91,79.11-180a142.24,142.24,0,0,1,24,79.25C423,292.64,358.81,356.82,279.91,356.82Z"/><path d="M35.92,440.8H58.84l18.32,55.63L95.59,440.8h23.27V521h-15V464.18h-.22L84,521H70.42l-19.67-56.3h-.22V521H35.92Z"/><path d="M151,506.1h45.29v14.83H133.92V440.46h58.55V455.3H151v18.09h36.64V489H151Z"/><path d="M229.11,455.63l-25.51.12V440.91H272v14.84l-25.29-.12V521H229.11Z"/><path d="M297.78,486.65v34.17h-17.2V440.35h17.2v29.11H335V440.57h17.31v80.25H335V486.65Z"/><path d="M442.76,480.58a39.75,39.75,0,0,1-3.32,16.19,42.92,42.92,0,0,1-8.93,13.15,41.88,41.88,0,0,1-13.21,8.87,41.66,41.66,0,0,1-32.31,0,41.63,41.63,0,0,1-22-22,42,42,0,0,1,0-32.43,41.56,41.56,0,0,1,22-22.08,41.66,41.66,0,0,1,32.31,0,41.73,41.73,0,0,1,13.21,8.88,42.79,42.79,0,0,1,8.93,13.2A40.12,40.12,0,0,1,442.76,480.58ZM401.17,456a23.18,23.18,0,0,0-9.49,2,24.88,24.88,0,0,0-7.76,5.34,26,26,0,0,0-5.28,7.81,23.87,23.87,0,0,0,0,19,25.21,25.21,0,0,0,13,13,23.17,23.17,0,0,0,9.49,2,22.77,22.77,0,0,0,9.44-2,25.34,25.34,0,0,0,7.7-5.29,24.59,24.59,0,0,0,5.23-7.75,24.56,24.56,0,0,0,0-19,25.32,25.32,0,0,0-5.23-7.81,25,25,0,0,0-7.7-5.34A22.78,22.78,0,0,0,401.17,456Z"/><path d="M452.87,440.8h34.62a41.28,41.28,0,0,1,14.44,2.47,31.34,31.34,0,0,1,11.58,7.42,34.49,34.49,0,0,1,7.64,12.36,50.15,50.15,0,0,1,2.75,17.42,55.46,55.46,0,0,1-2.25,16.18,35.57,35.57,0,0,1-6.8,12.82A31.81,31.81,0,0,1,503.5,518a38.4,38.4,0,0,1-16,3.09H452.87Zm17.65,65.41h15.73a22.53,22.53,0,0,0,7.42-1.24,16.33,16.33,0,0,0,6.41-4.1,20.59,20.59,0,0,0,4.49-7.47,33,33,0,0,0,1.69-11.24,47.15,47.15,0,0,0-1.18-11,21.85,21.85,0,0,0-3.88-8.37,17.1,17.1,0,0,0-7.14-5.34,28.41,28.41,0,0,0-11-1.86H470.52Z"/></g></g></svg>